<svg xmlns="http://www.w3.org/2000/svg" id="facets" viewBox="0 0 100 52.89">
  <path fill="#076AAB" d="M49.58 0s-1.63 5.2-6.5 8.2H37.7L49.58 0zM50.42 0s1.63 5.2 6.5 8.2h5.36L50.42 0z"/>
  <path fill="#87B2D8" d="M49.58 20.68s-1.63-6.3-6.5-9.98H37.7l11.86 9.98zM50.42 20.68s1.63-6.3 6.5-9.98h5.36l-11.86 9.98z"/>
  <path fill="#076AAB" d="M27.76 52.07l.34-.2c.23.42.5.64.8.64.14 0 .27-.02.38-.08.1-.06.2-.14.27-.25.05-.1.08-.2.08-.33s-.04-.26-.13-.4c-.12-.16-.34-.37-.67-.6-.33-.26-.53-.44-.6-.55-.15-.2-.22-.4-.22-.6 0-.18.05-.34.13-.47.08-.15.2-.26.35-.34.15-.1.3-.13.48-.13.2 0 .36.05.52.14.16.1.33.27.5.5l-.3.25c-.16-.2-.28-.32-.38-.38-.1-.06-.22-.1-.35-.1-.15 0-.28.05-.38.15-.1.1-.15.2-.15.36 0 .08 0 .16.05.24.04.08.1.17.2.26l.5.4c.34.24.57.47.7.67.13.2.2.4.2.58 0 .3-.12.53-.34.75-.2.2-.47.3-.8.3-.22 0-.44-.05-.63-.18s-.37-.34-.54-.63zM32.8 48.87h.4v3.93h-.4v-3.93zM36.08 52.8v-3.93h.1l2.6 3v-3h.38v3.93h-.1l-2.58-2.98v2.98h-.4zM45.88 49.53l-.3.3c-.22-.22-.47-.4-.73-.5-.26-.1-.5-.17-.76-.17-.3 0-.6.08-.9.23-.26.14-.48.34-.63.6-.15.26-.23.54-.23.82 0 .3.08.58.23.85.16.26.38.47.66.62.28.15.6.22.92.22.4 0 .74-.1 1.02-.34.28-.23.45-.52.5-.88h-1.25v-.38h1.7c0 .6-.2 1.1-.55 1.44-.36.36-.83.54-1.43.54-.73 0-1.3-.25-1.72-.75-.33-.37-.5-.82-.5-1.32 0-.37.1-.72.3-1.03.18-.32.43-.57.76-.75.32-.18.7-.27 1.1-.27.33 0 .65.05.94.17.3.12.58.32.86.58zM50.44 48.87l1.83 3.93h-.43l-.6-1.3h-1.7l-.6 1.3h-.45l1.84-3.93h.1zm-.05.83l-.68 1.43h1.34l-.67-1.43zM54.84 48.87h.8c.43 0 .74.02.9.06.22.06.4.17.55.34.13.17.2.4.2.65 0 .26-.07.47-.2.64-.15.18-.34.3-.58.34-.18.05-.5.07-1 .07h-.28v1.83h-.4v-3.93zm.4.4v1.32h.66c.27 0 .47-.03.6-.08.12-.05.2-.13.28-.24.08-.1.1-.23.1-.36 0-.13-.03-.25-.1-.36-.07-.1-.16-.2-.28-.24-.1-.04-.3-.06-.57-.06h-.7zM61.93 48.77c.6 0 1.1.2 1.5.6.4.4.6.88.6 1.46 0 .57-.2 1.06-.6 1.46-.4.4-.9.6-1.47.6-.58 0-1.07-.2-1.47-.6-.4-.4-.62-.9-.62-1.45 0-.38.1-.72.28-1.05.18-.32.43-.57.75-.75.32-.18.66-.28 1.03-.28zm.02.4c-.3 0-.57.06-.83.2-.26.17-.47.37-.6.62-.15.25-.23.54-.23.85 0 .47.15.86.48 1.18.32.32.7.48 1.17.48.3 0 .58-.06.84-.2.25-.16.45-.36.6-.6.14-.27.2-.55.2-.87 0-.3-.06-.6-.2-.84-.15-.26-.35-.46-.62-.62-.26-.15-.54-.22-.83-.22zM66.8 48.87h.78c.44 0 .73.02.9.05.22.06.4.17.56.35.14.18.22.4.22.65 0 .2-.06.4-.16.56-.1.16-.24.3-.43.37-.18.08-.44.12-.77.12l1.4 1.83h-.47l-1.4-1.83h-.24v1.83h-.4v-3.93zm.4.4v1.32h.67c.26 0 .46-.03.58-.08.13-.05.22-.13.3-.24.06-.1.1-.23.1-.36 0-.14-.04-.25-.1-.37-.08-.1-.17-.18-.28-.22-.12-.05-.3-.07-.6-.07h-.67zM72.08 48.87h2.24v.4h-1.85v1.2h1.84v.4h-1.83v1.54h1.84v.4H72.1v-3.93zM7.74 30.55H.24c.32.34.52.58.62.74.1.14.15.35.15.62v6.45c0 .32-.08.6-.28.85-.2.24-.43.4-.72.5v.12h3.3l.08-.12c-.27-.08-.5-.23-.67-.45-.17-.23-.26-.47-.26-.74V35.1H5.14c.34 0 .7.15 1.04.43.35.27.58.55.67.8h.08v-2.78h-.1c-.13.37-.32.66-.6.86-.28.22-.6.33-.97.33H2.44v-3.86h2.32c.95 0 1.67.18 2.18.54.5.38.92.74 1.24 1.1-.03-.32-.08-.64-.16-1-.08-.32-.17-.65-.28-.95zM24.55 38.46c.08.2.12.4.12.54 0 .2-.04.37-.14.5-.1.16-.23.27-.4.34h3.36l-.46-.36c-.1-.08-.18-.2-.26-.36-.14-.14-.47-.72-1-1.75-.55-1.03-1.15-2.24-1.82-3.63-.66-1.4-1.2-2.56-1.56-3.52h-.08c-.37.82-.85 1.83-1.42 3.04-.57 1.2-1.05 2.22-1.45 3.03-.4.8-.67 1.4-.85 1.77-.18.38-.36.68-.53.92-.17.22-.44.5-.8.84h2.62c-.3-.15-.52-.3-.66-.47-.14-.17-.22-.37-.22-.6 0-.2.06-.44.18-.7l1-2.43 1.58-3.38M44.2 39.08c-.56.48-1.17.73-1.84.73-1.2 0-2.1-.42-2.77-1.27-.67-.86-1-1.98-1-3.4 0-1.47.32-2.6.96-3.38.65-.78 1.53-1.18 2.67-1.18.7 0 1.3.24 1.78.72.5.46.82 1.07.95 1.8h.1l.53-1.82c-.53-.33-1.07-.58-1.64-.77-.57-.18-1.14-.28-1.7-.28-1.43 0-2.68.43-3.74 1.27-1.07.84-1.6 2.1-1.6 3.8 0 1.63.52 2.85 1.57 3.65 1.05.8 2.33 1.2 3.84 1.2.63 0 1.35-.18 2.2-.56.82-.38 1.25-.63 1.27-.76-.1-.56-.26-1.1-.47-1.62-.2.75-.56 1.37-1.1 1.86zM60.6 39.5h-1.75c-.32 0-.58-.13-.8-.38-.2-.25-.32-.54-.32-.88v-3.16h2.84c.3 0 .63.12.97.37.35.24.6.55.73.92V33.5c-.2.34-.46.62-.75.86-.3.23-.58.34-.87.34h-2.87v-3.83h2.9c.52 0 1.02.14 1.5.4.47.28.9.7 1.26 1.26h.14l-.5-1.98h-7.6c.2 0 .37.1.54.32.17.2.25.44.25.7v6.37c0 .42-.07.8-.24 1.14-.15.34-.38.6-.7.76h8.33l.57-2.3c-.47.5-1.04.93-1.7 1.34-.66.4-1.3.62-1.94.62zM73.9 30.55l-.46 1.92.1.02c.4-.4.84-.78 1.35-1.17.5-.38 1.02-.56 1.57-.56.36 0 .6.1.73.27.12.2.18.4.18.66v6.51c0 .4-.1.7-.27.96-.18.26-.43.44-.73.56v.12h3.46v-.15c-.32 0-.57-.17-.75-.5-.18-.32-.27-.67-.27-1.05v-6.1c0-.37.07-.67.17-.9.1-.23.27-.34.5-.34.62 0 1.2.16 1.72.47.5.3 1 .74 1.44 1.3h.08l-.5-2.02h-8.3zM98.36 34.66l-3.02-.6c-1.08-.3-1.62-.87-1.62-1.66 0-.52.23-.96.7-1.34.46-.38 1-.57 1.56-.57.7 0 1.36.2 1.96.6.6.4 1 .92 1.15 1.6l.5-1.73c-.58-.28-1.15-.47-1.7-.58-.58-.12-1.2-.17-1.92-.17-.93 0-1.77.25-2.5.77-.75.52-1.12 1.26-1.12 2.22 0 .96.54 1.65 1.62 2.08 1 .25 2.02.52 3.06.8 1.04.3 1.56.78 1.56 1.5 0 .66-.3 1.2-.88 1.57-.58.4-1.24.58-1.98.58-.76 0-1.46-.23-2.1-.7-.6-.45-1-1.07-1.16-1.85-.14.36-.25.7-.35 1.05-.1.33-.17.66-.23.96l.07.1c.57.27 1.2.47 1.85.6.67.14 1.35.2 2.03.2 1.2 0 2.2-.28 2.98-.84.78-.57 1.17-1.5 1.17-2.82 0-.86-.54-1.45-1.64-1.78z"/>
  <path fill="#076AAB" d="M23.22 35.36s-.52 1.22-1.77 1.83h-1.3l3.07-1.84z"/>
</svg>